<svg width="50" height="50" viewBox="0 0 50 50" fill="none" xmlns="http://www.w3.org/2000/svg">
<path d="M47.9999 0H1.99994C0.893689 0 -6.10352e-05 0.89375 -6.10352e-05 2V48C-6.10352e-05 49.1063 0.893689 50 1.99994 50H47.9999C49.1062 50 49.9999 49.1063 49.9999 48V2C49.9999 0.89375 49.1062 0 47.9999 0ZM30.4062 14.9312H39.0562V17.0375H30.4062V14.9312ZM24.9999 32.3C24.5954 33.068 24.0176 33.7313 23.3124 34.2375C22.5749 34.75 21.7562 35.125 20.8874 35.3438C19.9785 35.5873 19.0409 35.7071 18.0999 35.7H7.74994V14.3813H17.8124C18.8312 14.3813 19.7562 14.475 20.5999 14.65C21.4374 14.825 22.1499 15.125 22.7499 15.5312C23.3437 15.9375 23.8124 16.4813 24.1437 17.1562C24.4687 17.825 24.6374 18.6625 24.6374 19.6562C24.6374 20.7313 24.3937 21.6187 23.9062 22.3375C23.4124 23.0562 22.6999 23.6375 21.7312 24.0938C23.0499 24.4688 24.0187 25.1375 24.6562 26.075C25.3062 27.025 25.6249 28.1625 25.6249 29.5C25.6249 30.5875 25.4187 31.5187 24.9999 32.3ZM42.4249 29H31.2749C31.2749 30.2125 31.6937 31.375 32.3249 32C32.9624 32.6188 33.8749 32.9313 35.0687 32.9313C35.9312 32.9313 36.6624 32.7125 37.2874 32.2812C37.9062 31.85 38.2812 31.3938 38.4187 30.9188H42.1562C41.5562 32.775 40.6437 34.1 39.4062 34.9C38.1812 35.7 36.6812 36.1 34.9374 36.1C33.7187 36.1 32.6249 35.9 31.6437 35.5187C30.6999 35.15 29.8499 34.5875 29.1499 33.8625C28.4598 33.118 27.9263 32.2423 27.5812 31.2875C27.1999 30.2312 27.0124 29.1187 27.0249 28C27.0249 26.8438 27.2187 25.7687 27.5937 24.7687C28.3124 22.825 29.8062 21.2687 31.7124 20.4625C32.7312 20.0375 33.8249 19.825 34.9312 19.8375C36.2437 19.8375 37.3812 20.0875 38.3687 20.6C39.3194 21.0894 40.1448 21.7908 40.7812 22.65C41.4124 23.5063 41.8562 24.4812 42.1374 25.5812C42.4062 26.6625 42.4999 27.8 42.4249 29ZM34.7999 23.025C34.1249 23.025 33.5562 23.1437 33.1187 23.375C32.6812 23.6063 32.3187 23.8938 32.0437 24.225C31.7818 24.5448 31.5882 24.9149 31.4749 25.3125C31.3749 25.6437 31.3062 25.9813 31.2812 26.325H38.1874C38.0874 25.2438 37.7124 24.4438 37.2124 23.8813C36.6874 23.325 35.8437 23.025 34.7999 23.025ZM19.2687 22.3937C19.8124 22 20.0749 21.35 20.0749 20.4562C20.0937 20.0312 20.0062 19.6125 19.8187 19.2313C19.6499 18.925 19.3999 18.6687 19.0937 18.4875C18.7761 18.2949 18.4235 18.1675 18.0562 18.1125C17.6562 18.0375 17.2499 18 16.8499 18.0063H12.4562V22.9875H17.2124C18.0312 22.9937 18.7249 22.7937 19.2687 22.3937ZM20.0062 26.8937C19.3937 26.425 18.5749 26.1937 17.5562 26.1937H12.4437V32.0687H17.4562C17.9249 32.0687 18.3562 32.025 18.7749 31.9375C19.1937 31.85 19.5687 31.7 19.8874 31.4875C20.2062 31.2812 20.4624 31 20.6562 30.6375C20.8437 30.275 20.9374 29.8125 20.9374 29.2562C20.9374 28.15 20.6249 27.3687 20.0062 26.8937Z" fill="#07090F"/>
</svg>
