<svg width="51" height="50" viewBox="0 0 51 50" fill="none" xmlns="http://www.w3.org/2000/svg">
<path d="M44.0833 50H31.4857C31.5508 49.5768 31.5833 49.1699 31.5833 48.7793C31.5833 46.0124 31.2659 43.2373 30.6312 40.4541C29.9964 37.6709 29.1094 35.5957 27.97 34.2285C32.2018 33.8704 35.4245 32.6253 37.638 30.4932C39.8515 28.361 40.9583 25.6022 40.9583 22.2168C40.9583 19.2546 39.9166 16.9759 37.8333 15.3809V10.9375C37.8333 10.612 37.6543 10.2702 37.2962 9.91211C36.9381 9.55404 36.5963 9.375 36.2708 9.375C35.8802 9.375 33.9433 10.5143 30.4603 12.793C28.9303 12.5977 27.2213 12.5 25.3333 12.5C23.4453 12.5 21.7363 12.5977 20.2064 12.793C16.7233 10.5143 14.7864 9.375 14.3958 9.375C14.0703 9.375 13.7285 9.55404 13.3704 9.91211C13.0123 10.2702 12.8333 10.612 12.8333 10.9375C12.8333 11.2305 12.8008 11.9466 12.7357 13.0859C12.6706 14.2253 12.6217 15.0553 12.5892 15.5762C10.6686 17.1712 9.70831 19.3848 9.70831 22.2168C9.70831 25.6022 10.8151 28.361 13.0286 30.4932C15.2422 32.6253 18.4648 33.8704 22.6966 34.2285C22.5338 34.4564 22.306 34.7982 22.013 35.2539C20.6133 36.7513 18.595 37.5 15.9583 37.5C15.4375 37.5 14.9166 37.2884 14.3958 36.8652C13.875 36.4421 13.3623 35.9212 12.8577 35.3027C12.3532 34.6842 11.8242 34.0658 11.2708 33.4473C10.7174 32.8288 10.0338 32.3079 9.22003 31.8848C8.40623 31.4616 7.52732 31.25 6.58331 31.25C6.58331 31.5104 6.74607 31.8441 7.07159 32.251C7.39712 32.6579 7.82843 33.195 8.36554 33.8623C8.90265 34.5296 9.35024 35.2214 9.70831 35.9375C10.5547 37.5977 11.4336 38.7939 12.345 39.5264C13.2565 40.2588 14.4609 40.625 15.9583 40.625C17.5208 40.625 18.9368 40.3971 20.2064 39.9414C19.4577 42.806 19.0833 45.752 19.0833 48.7793C19.0833 49.1699 19.1159 49.5768 19.181 50H6.58331C4.85805 50 3.38507 49.3896 2.16437 48.1689C0.943665 46.9482 0.333313 45.4753 0.333313 43.75V6.25C0.333313 4.52474 0.943665 3.05176 2.16437 1.83105C3.38507 0.610352 4.85805 0 6.58331 0H44.0833C45.8086 0 47.2816 0.610352 48.5023 1.83105C49.723 3.05176 50.3333 4.52474 50.3333 6.25V43.75C50.3333 45.4753 49.723 46.9482 48.5023 48.1689C47.2816 49.3896 45.8086 50 44.0833 50V50Z" fill="#07090F"/>
</svg>
