<svg width="51" height="50" viewBox="0 0 51 50" fill="none" xmlns="http://www.w3.org/2000/svg">
<path d="M25.6599 16.6631C21.0694 16.6631 17.3232 20.4094 17.3232 25C17.3232 29.5906 21.0694 33.3369 25.6599 33.3369C30.2504 33.3369 33.9966 29.5906 33.9966 25C33.9966 20.4094 30.2504 16.6631 25.6599 16.6631ZM50.6638 25C50.6638 21.5477 50.6951 18.1266 50.5012 14.6805C50.3074 10.6778 49.3942 7.12542 46.4673 4.19845C43.5341 1.26521 39.9881 0.358351 35.9854 0.16447C32.5332 -0.0294109 29.1122 0.00186028 25.6662 0.00186028C22.2139 0.00186028 18.7929 -0.0294109 15.3469 0.16447C11.3443 0.358351 7.79192 1.27147 4.86499 4.19845C1.93182 7.13168 1.02497 10.6778 0.831093 14.6805C0.637216 18.1329 0.668486 21.5539 0.668486 25C0.668486 28.4461 0.637216 31.8734 0.831093 35.3195C1.02497 39.3222 1.93807 42.8746 4.86499 45.8016C7.79817 48.7348 11.3443 49.6416 15.3469 49.8355C18.7991 50.0294 22.2201 49.9981 25.6662 49.9981C29.1184 49.9981 32.5394 50.0294 35.9854 49.8355C39.9881 49.6416 43.5404 48.7285 46.4673 45.8016C49.4005 42.8683 50.3074 39.3222 50.5012 35.3195C50.7014 31.8734 50.6638 28.4523 50.6638 25ZM25.6599 37.8274C18.5615 37.8274 12.8327 32.0985 12.8327 25C12.8327 17.9015 18.5615 12.1726 25.6599 12.1726C32.7583 12.1726 38.4871 17.9015 38.4871 25C38.4871 32.0985 32.7583 37.8274 25.6599 37.8274ZM39.0124 14.643C37.3551 14.643 36.0167 13.3046 36.0167 11.6472C36.0167 9.98986 37.3551 8.65145 39.0124 8.65145C40.6698 8.65145 42.0081 9.98986 42.0081 11.6472C42.0086 12.0408 41.9315 12.4306 41.7811 12.7942C41.6307 13.1579 41.4101 13.4884 41.1318 13.7667C40.8535 14.0449 40.5231 14.2656 40.1594 14.416C39.7957 14.5663 39.406 14.6435 39.0124 14.643Z" fill="#07090F"/>
</svg>
