<svg width="400" height="400" viewBox="0 0 400 400" fill="none" xmlns="http://www.w3.org/2000/svg">
<path d="M399.609 184.766C399.609 183.724 399.479 182.682 399.219 181.641C398.958 180.599 398.633 179.557 398.242 178.516C397.852 177.474 397.396 176.497 396.875 175.586C396.354 174.674 395.703 173.828 394.922 173.047L394.531 172.656C394.01 171.875 393.359 171.094 392.578 170.312L390.234 167.969L325 102.344V62.1094C325 58.724 323.763 55.7943 321.289 53.3203C318.815 50.8464 315.885 49.6094 312.5 49.6094H273.047L227.344 10.5469C224.479 7.68229 221.289 5.40365 217.773 3.71094C214.258 2.01823 210.547 0.911458 206.641 0.390625C202.734 -0.130208 198.828 -0.130208 194.922 0.390625C191.016 0.911458 187.305 2.01823 183.789 3.71094C180.273 5.40365 177.083 7.68229 174.219 10.5469L128.906 49.6094H87.5C84.1146 49.6094 81.1849 50.8464 78.7109 53.3203C76.237 55.7943 75 58.724 75 62.1094V103.125L11.3281 166.797C3.77604 171.745 0 178.776 0 187.891V375C0 382.031 2.47396 387.956 7.42188 392.773C12.3698 397.591 18.2292 400 25 400H375C379.427 400 383.594 398.893 387.5 396.68C391.406 394.466 394.466 391.406 396.68 387.5C398.893 383.594 400 379.427 400 375V186.719L399.609 184.766ZM105.078 283.594L25 357.812V212.891L105.078 283.594ZM129.297 295.312C130.859 294.531 132.292 293.359 133.594 291.797C133.854 291.536 134.115 291.211 134.375 290.82C134.635 290.43 134.896 289.974 135.156 289.453L189.062 239.453C191.927 237.109 195.182 235.938 198.828 235.938C202.474 235.938 205.599 236.979 208.203 239.062L358.203 375H42.9688L129.297 295.312ZM296.094 285.156L375 215.234V356.25L296.094 285.156ZM350.781 162.891H350.391L371.875 184.375L325 226.172V137.109L350.781 162.891ZM191.797 28.125C194.401 25.7812 197.396 24.6094 200.781 24.6094C202.344 24.6094 203.906 24.9349 205.469 25.5859C207.031 26.237 208.464 27.0833 209.766 28.125L234.766 49.6094H166.797L191.797 28.125ZM300 74.6094V248.438L277.734 268.359L224.219 219.922C222.656 218.62 220.964 217.448 219.141 216.406C217.318 215.365 215.495 214.518 213.672 213.867C211.849 213.216 209.961 212.63 208.008 212.109C206.055 211.589 204.036 211.263 201.953 211.133C199.87 211.003 197.852 211.003 195.898 211.133C193.945 211.263 191.927 211.589 189.844 212.109C187.76 212.63 185.807 213.281 183.984 214.062C182.161 214.844 180.273 215.755 178.32 216.797C176.367 217.839 174.609 219.01 173.047 220.312L123.438 266.406L100 245.703V74.6094H300ZM40.625 173.047L75 138.672V223.438L29.2969 183.203L39.8438 173.047H40.625Z" fill="#07090F"/>
</svg>
