<svg width="225" height="174" viewBox="0 0 225 174" fill="none" xmlns="http://www.w3.org/2000/svg">
<path d="M29.65 113.5C31.8667 113.5 33.7917 113.873 35.425 114.62C37.0583 115.343 38.3183 116.393 39.205 117.77C40.0917 119.123 40.535 120.722 40.535 122.565C40.535 124.408 40.0917 126.007 39.205 127.36C38.3183 128.713 37.0583 129.763 35.425 130.51C33.7917 131.233 31.8667 131.595 29.65 131.595H25.38V138H18.45V113.5H29.65ZM29.23 126.135C30.6533 126.135 31.7267 125.832 32.45 125.225C33.1733 124.595 33.535 123.708 33.535 122.565C33.535 121.422 33.1733 120.535 32.45 119.905C31.7267 119.275 30.6533 118.96 29.23 118.96H25.38V126.135H29.23ZM54.6239 131.49H50.8439V138H43.9139V113.5H55.1139C57.3305 113.5 59.2555 113.873 60.8889 114.62C62.5222 115.343 63.7822 116.393 64.6689 117.77C65.5555 119.123 65.9989 120.722 65.9989 122.565C65.9989 124.338 65.5789 125.89 64.7389 127.22C63.9222 128.527 62.7439 129.553 61.2039 130.3L66.4889 138H59.0689L54.6239 131.49ZM58.9989 122.565C58.9989 121.422 58.6372 120.535 57.9139 119.905C57.1905 119.275 56.1172 118.96 54.6939 118.96H50.8439V126.135H54.6939C56.1172 126.135 57.1905 125.832 57.9139 125.225C58.6372 124.595 58.9989 123.708 58.9989 122.565ZM82.1771 138.49C79.5871 138.49 77.2537 137.942 75.1771 136.845C73.1237 135.748 71.5021 134.232 70.3121 132.295C69.1454 130.358 68.5621 128.177 68.5621 125.75C68.5621 123.323 69.1454 121.142 70.3121 119.205C71.5021 117.268 73.1237 115.752 75.1771 114.655C77.2537 113.558 79.5871 113.01 82.1771 113.01C84.7671 113.01 87.0887 113.558 89.1421 114.655C91.2187 115.752 92.8404 117.268 94.0071 119.205C95.1971 121.142 95.7921 123.323 95.7921 125.75C95.7921 128.177 95.1971 130.358 94.0071 132.295C92.8404 134.232 91.2187 135.748 89.1421 136.845C87.0887 137.942 84.7671 138.49 82.1771 138.49ZM82.1771 132.75C83.4137 132.75 84.5337 132.458 85.5371 131.875C86.5404 131.292 87.3337 130.475 87.9171 129.425C88.5004 128.352 88.7921 127.127 88.7921 125.75C88.7921 124.373 88.5004 123.16 87.9171 122.11C87.3337 121.037 86.5404 120.208 85.5371 119.625C84.5337 119.042 83.4137 118.75 82.1771 118.75C80.9404 118.75 79.8204 119.042 78.8171 119.625C77.8137 120.208 77.0204 121.037 76.4371 122.11C75.8537 123.16 75.5621 124.373 75.5621 125.75C75.5621 127.127 75.8537 128.352 76.4371 129.425C77.0204 130.475 77.8137 131.292 78.8171 131.875C79.8204 132.458 80.9404 132.75 82.1771 132.75ZM104.264 138.49C102.467 138.49 100.834 138.187 99.364 137.58C97.894 136.95 96.6923 136.052 95.759 134.885L99.539 130.405C100.846 132.108 102.257 132.96 103.774 132.96C104.777 132.96 105.536 132.657 106.049 132.05C106.586 131.443 106.854 130.557 106.854 129.39V118.855H98.384V113.5H113.714V128.97C113.714 132.143 112.909 134.523 111.299 136.11C109.712 137.697 107.367 138.49 104.264 138.49ZM138.061 132.645V138H118.391V113.5H137.606V118.855H125.251V122.985H136.136V128.165H125.251V132.645H138.061ZM154.088 138.49C151.521 138.49 149.211 137.953 147.158 136.88C145.128 135.783 143.53 134.267 142.363 132.33C141.196 130.393 140.613 128.2 140.613 125.75C140.613 123.3 141.196 121.107 142.363 119.17C143.53 117.233 145.128 115.728 147.158 114.655C149.211 113.558 151.521 113.01 154.088 113.01C156.328 113.01 158.346 113.407 160.143 114.2C161.94 114.993 163.433 116.137 164.623 117.63L160.213 121.62C158.626 119.707 156.701 118.75 154.438 118.75C153.108 118.75 151.918 119.042 150.868 119.625C149.841 120.208 149.036 121.037 148.453 122.11C147.893 123.16 147.613 124.373 147.613 125.75C147.613 127.127 147.893 128.352 148.453 129.425C149.036 130.475 149.841 131.292 150.868 131.875C151.918 132.458 153.108 132.75 154.438 132.75C156.701 132.75 158.626 131.793 160.213 129.88L164.623 133.87C163.433 135.363 161.94 136.507 160.143 137.3C158.346 138.093 156.328 138.49 154.088 138.49ZM172.723 118.995H165.198V113.5H187.143V118.995H179.653V138H172.723V118.995ZM198.266 138.49C196.283 138.49 194.358 138.245 192.491 137.755C190.624 137.265 189.108 136.612 187.941 135.795L190.216 130.685C191.313 131.408 192.584 131.992 194.031 132.435C195.478 132.878 196.901 133.1 198.301 133.1C200.961 133.1 202.291 132.435 202.291 131.105C202.291 130.405 201.906 129.892 201.136 129.565C200.389 129.215 199.176 128.853 197.496 128.48C195.653 128.083 194.113 127.663 192.876 127.22C191.639 126.753 190.578 126.018 189.691 125.015C188.804 124.012 188.361 122.658 188.361 120.955C188.361 119.462 188.769 118.12 189.586 116.93C190.403 115.717 191.616 114.76 193.226 114.06C194.859 113.36 196.854 113.01 199.211 113.01C200.821 113.01 202.408 113.197 203.971 113.57C205.534 113.92 206.911 114.445 208.101 115.145L205.966 120.29C203.633 119.03 201.369 118.4 199.176 118.4C197.799 118.4 196.796 118.61 196.166 119.03C195.536 119.427 195.221 119.952 195.221 120.605C195.221 121.258 195.594 121.748 196.341 122.075C197.088 122.402 198.289 122.74 199.946 123.09C201.813 123.487 203.353 123.918 204.566 124.385C205.803 124.828 206.864 125.552 207.751 126.555C208.661 127.535 209.116 128.877 209.116 130.58C209.116 132.05 208.708 133.38 207.891 134.57C207.074 135.76 205.849 136.717 204.216 137.44C202.583 138.14 200.599 138.49 198.266 138.49Z" fill="#07090F"/>
<path d="M104.285 78.795L93.12 82.75L104.285 86.705V91.815L87.03 85.445V80.055L104.285 73.685V78.795ZM116.583 65.53H122.498L110.948 98.5H105.033L116.583 65.53ZM140.139 80.055V85.445L122.884 91.815V86.705L134.049 82.75L122.884 78.795V73.685L140.139 80.055Z" fill="#07090F"/>
<rect x="4" y="39" width="217" height="131" rx="5" stroke="#07090F" stroke-width="8"/>
<path d="M146 4H78C75.2386 4 73 6.23857 73 9V34C73 36.7614 75.2386 39 78 39H146C148.761 39 151 36.7614 151 34V9C151 6.23858 148.761 4 146 4Z" stroke="#07090F" stroke-width="8"/>
<path d="M92 16H88V20V35V39H92H132H136V35V20V16H132H92Z" stroke="#07090F" stroke-width="8"/>
</svg>
